<?xml version="1.0" standalone="no"?>
<!DOCTYPE svg PUBLIC "-//W3C//DTD SVG 20010904//EN"
 "http://www.w3.org/TR/2001/REC-SVG-20010904/DTD/svg10.dtd">
<svg version="1.0" xmlns="http://www.w3.org/2000/svg"
 width="420.000000pt" height="420.000000pt" viewBox="0 0 420.000000 420.000000"
 preserveAspectRatio="xMidYMid meet">

<g transform="translate(0.000000,420.000000) scale(0.100000,-0.100000)"
fill="#000000" stroke="none">
<path d="M2005 3770 c-101 -11 -310 -65 -375 -97 -82 -40 -164 -126 -186 -196
l-18 -57 -46 6 c-181 24 -324 -304 -265 -606 9 -47 21 -168 25 -270 5 -102 13
-201 19 -220 17 -53 15 -73 -6 -62 -42 22 -83 -26 -98 -115 -8 -49 10 -238 32
-336 17 -76 52 -127 88 -127 21 0 24 -7 35 -72 27 -156 75 -269 168 -393 143
-193 356 -353 557 -421 93 -32 223 -38 315 -15 202 50 452 209 592 375 62 74
147 234 173 328 12 42 20 55 31 51 25 -10 62 25 93 89 41 84 92 286 94 370 1
58 -2 71 -23 93 -19 20 -30 24 -52 20 -15 -4 -28 -4 -28 0 0 4 13 37 29 74 21
46 36 108 50 201 14 99 29 158 55 220 44 107 60 201 52 296 -6 66 -5 73 13 79
51 16 115 124 127 214 6 50 -9 80 -21 41 -3 -11 -18 -34 -32 -50 -21 -25 -32
-30 -70 -30 -68 0 -103 28 -202 159 -144 190 -286 307 -452 371 -112 43 -188
59 -367 75 -169 16 -200 16 -307 5z m-741 -2063 c20 -74 38 -107 76 -146 36
-36 90 -53 141 -45 37 6 84 -10 74 -26 -3 -5 -19 -5 -38 1 -17 5 -43 9 -57 9
-50 0 -101 22 -135 57 -73 75 -96 197 -93 496 l1 202 8 -245 c5 -175 11 -261
23 -303z m607 502 c36 -26 67 -85 75 -142 l6 -44 -35 -6 c-48 -8 -80 1 -72 21
23 61 25 104 6 148 -11 24 -17 44 -14 44 2 0 18 -9 34 -21z m-182 -3 c9 -11
10 -20 1 -36 -13 -24 -38 -23 -53 1 -23 37 25 68 52 35z m-110 -17 c-6 -11 -9
-45 -7 -75 3 -49 1 -54 -17 -54 -11 0 -40 9 -64 20 l-44 20 24 27 c20 22 106
83 116 83 2 0 -1 -9 -8 -21z m897 -39 c-31 -38 -42 -91 -28 -138 6 -20 9 -38
7 -41 -3 -2 -29 1 -59 8 -53 12 -54 13 -46 39 22 79 73 142 125 155 11 2 22 5
23 6 2 0 -8 -13 -22 -29z m94 -23 c0 -24 -18 -39 -41 -35 -29 4 -38 37 -14 54
20 15 55 2 55 -19z m229 -62 c22 -24 41 -52 41 -60 0 -19 -39 -35 -86 -35 -35
0 -42 8 -23 27 6 6 10 33 8 62 -5 64 6 65 60 6z m-984 -25 c3 -5 -1 -10 -9
-10 -9 0 -16 5 -16 10 0 6 4 10 9 10 6 0 13 -4 16 -10z m1252 -32 c-3 -7 -5
-2 -5 12 0 14 2 19 5 13 2 -7 2 -19 0 -25z m-12 -98 c-4 -34 -9 -59 -12 -57
-2 3 -1 33 3 66 4 34 9 60 11 57 3 -3 2 -32 -2 -66z m-18 -107 c-3 -10 -5 -4
-5 12 0 17 2 24 5 18 2 -7 2 -21 0 -30z m-1146 -131 c14 -9 47 -31 74 -49 58
-39 138 -57 228 -50 50 3 76 10 95 26 53 42 87 54 135 47 51 -8 94 -36 83 -54
-4 -7 -14 -12 -21 -12 -27 0 -120 -47 -169 -85 l-50 -38 -130 7 c-165 8 -177
10 -228 56 -53 46 -107 73 -175 90 -56 13 -62 20 -38 40 47 39 154 51 196 22z
m1069 -152 c-6 -11 -13 -20 -16 -20 -2 0 0 9 6 20 6 11 13 20 16 20 2 0 0 -9
-6 -20z m-36 -55 c-27 -42 -89 -64 -176 -64 -72 0 -94 8 -68 24 6 4 35 1 66
-5 47 -10 63 -9 99 4 23 9 52 28 65 41 30 32 35 32 14 0z m-1073 -382 c24 -12
55 -26 69 -32 25 -10 25 -10 -6 -10 -51 -1 -190 102 -247 184 -12 16 15 -4 59
-45 45 -42 101 -85 125 -97z m707 115 c-40 -61 -215 -179 -264 -177 -29 1 -29
1 -4 8 68 21 191 103 249 165 30 32 38 34 19 4z m-433 -1 c36 1 44 -1 30 -7
-32 -14 -88 -11 -115 6 l-25 15 30 -8 c17 -4 53 -7 80 -6z m-86 -159 c19 -6
66 -8 105 -6 62 3 67 3 40 -9 -56 -23 -172 -7 -209 30 -7 7 -3 7 10 2 11 -4
36 -12 54 -17z"/>
</g>
</svg>
